<svg xmlns="http://www.w3.org/2000/svg" version="1.1" xmlns:xlink="http://www.w3.org/1999/xlink" xmlns:svgjs="http://svgjs.dev/svgjs" width="1500" height="289" viewBox="0 0 1500 289"><g transform="matrix(1,0,0,1,0.6059751540958587,1.03265144927542)"><svg viewBox="0 0 357 69" data-background-color="#332885" preserveAspectRatio="xMidYMid meet" height="289" width="1500" xmlns="http://www.w3.org/2000/svg" xmlns:xlink="http://www.w3.org/1999/xlink"><g id="tight-bounds" transform="matrix(1,0,0,1,-0.14422208667480163,-0.24655000000001337)"><svg viewBox="0 0 357.2884441733496 69.4931" height="69.4931" width="357.2884441733496"><g><svg viewBox="0 0 357.2884441733496 69.4931" height="69.4931" width="357.2884441733496"><g><svg viewBox="0 0 357.2884441733496 69.4931" height="69.4931" width="357.2884441733496"><g id="textblocktransform"><svg viewBox="0 0 357.2884441733496 69.4931" height="69.4931" width="357.2884441733496" id="textblock"><g><svg viewBox="0 0 357.2884441733496 69.4931" height="69.4931" width="357.2884441733496"><g><svg><g></g><g></g></svg></g><g><svg><g><svg></svg></g><g></g></svg></g><g id="text-0"><svg viewBox="0 0 357.2884441733496 69.4931" height="69.4931" width="357.2884441733496"><g transform="matrix(1,0,0,1,0,13.271549999999998)"><svg width="86.75000000000001" viewBox="1.9 -42.95 86.74 42.95" height="42.95" data-palette-color="#ffffff"><path d="M1.9 0L1.9-42.95 15.1-42.95Q18.25-42.95 19.98-41.53 21.7-40.1 22.3-37.52 22.9-34.95 22.9-30.95L22.9-30.95Q22.9-27.3 21.95-25.25 21-23.2 18.65-22.4L18.65-22.4Q20.6-22 21.48-20.45 22.35-18.9 22.35-16.25L22.35-16.25 22.25 0 13.85 0 13.85-16.8Q13.85-18.6 13.15-19.1 12.45-19.6 10.6-19.6L10.6-19.6 10.6 0 1.9 0ZM10.65-27.05L12.7-27.05Q14.5-27.05 14.5-30.95L14.5-30.95Q14.5-32.65 14.35-33.5 14.2-34.35 13.8-34.68 13.4-35 12.65-35L12.65-35 10.65-35 10.65-27.05ZM43.5 0L25.75 0 25.75-42.95 42.95-42.95 42.95-34.65 34.5-34.65 34.5-26.3 42.6-26.3 42.6-18.2 34.5-18.2 34.5-8.35 43.5-8.35 43.5 0ZM54.75 0L46.35 0 46.35-42.95 55.2-42.95 59.15-22.4 59.15-42.95 67.45-42.95 67.45 0 59.05 0 54.75-21.5 54.75 0ZM83.54 0L74.94 0 74.94-34.7 69.84-34.7 69.84-42.95 88.64-42.95 88.64-34.7 83.54-34.7 83.54 0Z" opacity="1" transform="matrix(1,0,0,1,0,0)" fill="#ffffff" class="undefined-yy-0"></path></svg></g><g><svg xmlns="http://www.w3.org/2000/svg" xmlns:xlink="http://www.w3.org/1999/xlink" version="1.1" x="103.15690000000001" y="0" viewBox="0.0005588418583360455 0.000938475477073264 125.40724543229148 116.00806152452293" style="enable-background:new 0 0 125.408 116.009;" xml:space="preserve" width="75.12355721682778" height="69.4931" class="icon-cg-0" data-fill-palette-color="accent" id="cg-0"><path d="M124.916 88.296c-0.715-1.089-1.271-2.649-1.652-4.635-0.825-4.409-0.44-9.376-0.434-9.481 0.655-26.529-5.491-32.227-13.271-39.438l-1.265-1.177c-6.572-6.163-21.338-5.876-30.162-5.703l-1.211 0.022c-2.026 0.041-3.559 0.048-4.437-0.053-1.788-0.206-2.658-0.464-2.991-0.584-0.584-0.799-2.607-3.214-7.023-5.261-4.503-2.09-11.931-7.419-13.152-8.303-0.174-0.327-0.324-0.641-0.429-0.923C47.062 7.768 36.247 3.156 32.895 1.834c-0.008-0.004-0.017-0.006-0.026-0.01-0.013-0.005-0.03-0.012-0.042-0.017-0.316-0.137-0.623-0.253-0.904-0.357-4.565-1.722-10.135-1.901-18.056-0.581-4.415 0.729-5.27 2.843-6.097 4.886C7.273 6.987 6.801 8.152 5.47 9.2c-3.434 2.712-2.928 9.253-2.266 13.122-1.186 1.266-3.871 5.4-3.05 16.386 0.76 10.291 2.832 14.283 3.845 15.654-0.821 1.578-1.26 2.888-1.288 3.957-0.043 1.715 0.37 2.998 1.263 3.923 1.539 1.593 4.211 1.745 7.297 1.772 0.205 0 0.389 0.015 0.583 0.022 0.677 2.045 2.803 7.898 6.168 12.432 0.018 0.16 0.062 0.319 0.161 0.46 4.199 5.98 1.154 20.024-0.309 26.773-0.193 0.891-0.363 1.675-0.493 2.328-0.473 2.381-0.098 4.222 1.115 5.473 1.322 1.363 3.433 1.796 5.71 1.796 1.661 0 3.411-0.23 5.009-0.498 6.446-1.074 10.216-9.117 10.726-22.728 4.121 5.072 2.631 10.429 1.283 15.213-0.341 1.211-0.663 2.355-0.883 3.453-0.477 2.382-0.104 4.224 1.108 5.475 1.32 1.362 3.43 1.796 5.707 1.796 1.661 0 3.411-0.23 5.009-0.498 7.578-1.263 10.718-7.309 10.836-20.865l0.012-1.511c0.099 0.004 0.461 0.02 1.024 0.02 2.45 0 8.527-0.311 11.563-3.226 0.485-0.462 1.141-0.848 1.948-1.147 0.224-0.083 0.457-0.156 0.693-0.225 0.031 0.038 0.048 0.082 0.085 0.116 5.191 4.74 3.886 10.32 2.836 14.805-0.158 0.68-0.311 1.329-0.433 1.942-0.396 1.986-0.076 3.53 0.949 4.588 1.11 1.145 2.863 1.507 4.745 1.507 1.351 0 2.769-0.187 4.063-0.403 2.518-0.425 4.413-1.455 5.794-3.228-0.292 2.076 0.111 3.707 1.214 4.844 1.325 1.367 3.438 1.801 5.717 1.801 1.659 0 3.407-0.23 5.004-0.497 7.18-1.21 10.336-6.589 10.773-18.428 2.217-0.147 4.59-2.488 5.635-3.65C125.549 90.922 125.667 89.414 124.916 88.296zM72.257 29.818c0.897 0.102 2.251 0.108 4.098 0.077 1.004 1.232 1.768 5.81 1.688 10.263-0.06 3.322-0.537 4.795-0.794 5.232-0.963-0.412-3.965-2.821-5.459-6.212 0.46-4.521-0.287-7.678-1.031-9.574C71.189 29.679 71.677 29.752 72.257 29.818zM40.064 14.475c0.456-0.309 1.075-0.188 1.385 0.27 0.162 0.24 3.943 5.98 1.251 14.182-0.494 1.517-0.695 3.711-0.581 6.345 0.024 0.552-0.404 1.018-0.956 1.042-0.015 0.001-0.029 0.001-0.044 0.001-0.532 0-0.975-0.42-0.998-0.957-0.127-2.911 0.102-5.284 0.678-7.052 2.376-7.237-0.87-12.234-1.009-12.444C39.484 15.403 39.606 14.782 40.064 14.475zM12.627 62.066c-0.013 0-0.024-0.006-0.037-0.006-0.007 0-0.014 0.004-0.021 0.004-0.407-0.028-0.835-0.049-1.289-0.049-0.001 0-0.001 0-0.002 0-2.618-0.023-4.867-0.127-5.867-1.162-0.501-0.519-0.73-1.331-0.701-2.481 0.016-0.595 0.265-1.715 1.36-3.663 1.598-2.822 4.164-5.941 5.648-7.654 0.037 0.106 0.081 0.197 0.12 0.301-0.947 1.212-3.23 4.756-2.764 10.265 0.044 0.521 0.48 0.916 0.995 0.916 0.028 0 0.057-0.001 0.085-0.004 0.551-0.046 0.959-0.53 0.912-1.08-0.323-3.832 0.851-6.528 1.73-7.967 1.243 2.293 2.872 3.796 4.887 4.454 0.868 0.279 1.732 0.442 2.59 0.481-0.422 1.464-1.162 3.909-1.933 5.877l-0.175 0.438c-0.679 1.64-1.327 1.654-3.981 1.441-0.474-0.038-0.986-0.078-1.523-0.106C12.65 62.066 12.638 62.067 12.627 62.066zM28.885 110.828c-1.758 0.293-7.104 1.188-8.954-0.718-0.738-0.762-0.932-1.969-0.59-3.689 0.129-0.644 0.297-1.417 0.486-2.295 1.332-6.142 3.595-16.58 1.882-23.874 0.119 0.086 0.236 0.184 0.355 0.263 3.037 2.03 5.173 4.642 6.889 6.74 1.749 2.138 3.019 3.69 4.557 3.69 0.021 0 0.04-0.001 0.061-0.001 1.464-0.031 3.031-0.696 4.385-1.476C37.561 102.171 34.296 109.926 28.885 110.828zM76.853 86.907c-1.063 0.394-1.949 0.924-2.635 1.576-3.154 3.027-11.044 2.655-11.126 2.652-0.023-0.001-0.041 0.009-0.063 0.009 0.07-6.985 0.215-8.898 1.827-11.573 0.285-0.474 0.133-1.088-0.34-1.373-0.476-0.287-1.089-0.133-1.373 0.34-1.952 3.24-2.052 5.489-2.124 13.574L61 94.626c-0.126 14.449-3.755 18.011-9.165 18.912-1.757 0.293-7.104 1.188-8.95-0.717-0.737-0.762-0.929-1.969-0.584-3.69 0.204-1.022 0.517-2.131 0.847-3.304 1.507-5.349 3.345-11.946-2.625-18.106 4.935-3.884 10.045-10.827 11.019-18.398 0.07-0.548-0.317-1.05-0.864-1.12-0.558-0.061-1.049 0.318-1.12 0.864C48.6 76.523 43.273 83.346 38.421 86.8c-1.884 1.339-3.667 2.12-4.897 2.146-0.003 0-0.006 0-0.009 0-0.595 0-1.879-1.57-3.013-2.956-1.706-2.085-4.041-4.94-7.326-7.136-1.078-0.721-2.181-1.799-3.274-3.2-3.002-3.885-5.047-9.085-5.894-11.488 0.006 0 0.013 0.001 0.019 0.001 0.643 0.052 1.252 0.1 1.825 0.1 1.743 0 3.145-0.46 4.101-2.645 0.831-0.026 2.574 0.033 4.849 0.764 0.349 0.113 0.759 0.191 1.226 0.191 1.199 0 2.773-0.517 4.645-2.29 0.104-0.099 0.195-0.214 0.295-0.317 1.296-0.02 4.989-0.382 7.386-3.724 1.38-1.931 1.878-3.587 2.053-4.637 0.091-0.545-0.277-1.06-0.822-1.15-0.546-0.095-1.061 0.277-1.15 0.822-0.14 0.841-0.55 2.183-1.706 3.801-1.162 1.618-2.731 2.332-3.987 2.647 0.504-0.795 0.948-1.643 1.302-2.542l0.201-0.512c0.786-1.995 1.766-4.479 1.398-6.283-0.227-1.154-1.198-2.499-2.88-3.989-1.107-1.003-2.151-1.723-2.195-1.753-0.453-0.313-1.077-0.197-1.391 0.258-0.313 0.455-0.197 1.077 0.258 1.391 0.008 0.005 0.612 0.425 1.362 1.048-1.161 1.798-4.646 6.549-9.309 7.035-1.032 0.117-2.107 0.001-3.187-0.348-2.365-0.771-4.109-3.202-5.184-7.228-1.352-5.065-1.183-11.064-1.104-12.719 1.538-1.214 4.881-4.185 4.099-6.525-0.698-2.088-3.989-2.088-5.071-2.088-0.503 0-0.969 0.022-1.367 0.064-2.125 0.186-3.38 0.898-3.729 2.118-0.659 2.294 2.533 5.165 4.068 6.386-0.088 1.774-0.238 7.533 1.04 12.742-0.998 1.106-3.837 4.346-5.928 7.627-0.882-1.618-2.359-5.485-2.976-13.852-0.842-11.28 2.24-14.614 2.679-15.028 0.343-0.159 1.645-0.719 3.044-0.747 0.013 0 0.024 0 0.036-0.001 0.323-0.008 0.635 0.019 0.957 0.085 1.423 0.253 2.696-0.308 3.479-1.471 0.971-1.443 1.028-3.59 0.152-5.74-0.502-1.234-0.553-2.444-0.594-3.416-0.047-1.128-0.087-2.101-0.935-2.578-0.804-0.453-1.744-0.06-2.642 0.436-3.152 1.741-2.235 8.098-1.683 10.798-0.594 0.099-1.136 0.248-1.582 0.396C4.259 16.048 4.847 12.24 6.709 10.77c1.747-1.376 2.368-2.911 2.916-4.267 0.759-1.877 1.261-3.116 4.569-3.663 7.144-1.189 12.213-1.105 16.314 0.25-0.78 0.745-1.668 1.712-1.964 2.514-0.658 1.742-1.534 3.295-3.604 3.271-2.319-0.091-2.975 2.091-3.417 3.686-0.414 1.489-0.723 2.408-1.513 2.614-1.057 0.273-1.754 1.295-2.072 3.031-0.345 1.809 0.709 3.589 2.451 4.141 1.942 0.615 4.582 1.97 6.125 4.929 2.618 5.029 12.686 13.613 14.505 15.141 0.706 3.508 2.154 8.975 4.334 8.989 0.003 0 0.007 0 0.01 0 1.405 0 1.775-1.781 1.896-2.367 0.279-1.341 0.779-2.606 1.523-3.926 6.241 1.921 6.486 3.848 6.687 5.556 0.14 1.186 0.313 2.66 2.253 3.588 0.336 0.159 0.677 0.239 1.008 0.239 0.395 0 0.777-0.112 1.124-0.337 2.12-1.367 2.927-7.169 2.698-19.398l-0.012-0.65c-0.05-3.737-4.639-7.067-5.933-7.933-0.708-2.932-2.356-5.485-4.018-7.774 2.819 1.899 6.368 4.157 9.04 5.397 4.667 2.163 6.336 4.746 6.35 4.768 0.021 0.035 0.049 0.072 0.077 0.106 0.236 0.33 2.495 3.686 1.72 10.578-0.819 7.324-4.674 15.825-11.458 25.268-0.036 0.051-0.068 0.105-0.095 0.162-0.053 0.114-1.287 2.836-0.006 5.482 0.925 1.912 2.87 3.235 5.781 3.932 0.237 0.058 0.49 0.025 0.706-0.092 0.223-0.12 5.468-3.016 6.593-10.034 0.2-1.26 0.415-1.938 0.568-2.293 0.35 0.582 0.799 1.794 0.964 3.028 0.331 2.481-1.469 10.317-3.894 12.421-0.969 0.838-1.135 1.962-0.433 2.932 1.547 2.132 7.95 3.477 10.821 1.753 0.867-0.521 1.721-1.148 2.625-1.813 0.974-0.715 1.972-1.439 2.996-2.039 0.095 1.773 0.422 4.775 1.469 8.069C84.165 85.853 79.994 85.74 76.853 86.907zM20.72 59.627c0.532-1.503 1.01-3.058 1.346-4.208 0.636 0.537 1.486 1.043 2.537 1.182 0.191 0.025 0.384 0.038 0.575 0.038 1.4 0 2.8-0.673 4.169-2.007 2.565-2.493 3.439-5.138 3.704-7.032 0.45 0.602 0.591 0.995 0.629 1.184 0.25 1.23-0.682 3.594-1.298 5.158l-0.203 0.517c-0.668 1.698-1.668 3.214-2.887 4.38-1.041 0.986-2.559 2.076-3.877 1.644C23.469 59.857 21.836 59.667 20.72 59.627zM26.99 18.615c0 1.1-0.88 1.99-1.97 1.99-1.09 0-1.98-0.89-1.98-1.99s0.89-1.98 1.98-1.98C26.11 16.635 26.99 17.515 26.99 18.615zM97.01 99.948C97.01 99.949 97.01 99.949 97.01 99.948c-0.993 7.228-3.882 8.688-6.855 9.19-1.39 0.234-5.619 0.941-7.041-0.523-0.541-0.558-0.684-1.501-0.424-2.805 0.118-0.592 0.266-1.22 0.42-1.877 1.047-4.475 2.45-10.513-2.533-15.835 2.678-0.327 5.445-0.11 6.595 0.011 1.724 4.276 4.324 7.598 7.756 9.859 0.799 0.528 1.491 1.154 2.098 1.839-0.006 0.045-0.011 0.09-0.017 0.135C97.009 99.944 97.01 99.946 97.01 99.948zM97.404 92.357l-0.015 1.722c-0.006 1.106-0.054 2.151-0.119 3.159-0.392-0.332-0.802-0.649-1.24-0.939-3.228-2.127-5.659-5.313-7.226-9.471-1.603-4.215-1.856-8.263-1.891-9.803 0.939-0.328 1.814-0.467 2.654-0.396 1.627 0.136 2.767 2.789 3.974 5.597 1.026 2.388 2.087 4.856 3.727 6.619 0.053 0.056 0.12 0.086 0.182 0.127C97.422 89.949 97.414 91.059 97.404 92.357zM100.858 82.037c-0.676 1.133-0.995 2.028-1.178 3.301-0.072 0.498-0.5 0.857-0.989 0.857-0.047 0-0.095-0.003-0.144-0.01-0.547-0.079-0.926-0.586-0.848-1.133 0.222-1.541 0.626-2.674 1.441-4.041 0.282-0.474 0.895-0.632 1.371-0.346C100.986 80.948 101.142 81.562 100.858 82.037zM123.137 90.616c-1.516 1.684-3.093 2.796-4.091 2.964 0.002-0.164 0.004-0.324 0.004-0.508 0.018-4.475 0.027-6.8-0.048-8.535 0.818-0.42 1.827-0.182 2.419 0.034 0.43 1.991 1.037 3.624 1.829 4.83C123.495 89.768 123.448 90.268 123.137 90.616z" fill="#ffffff" data-fill-palette-color="accent"></path></svg></g><g transform="matrix(1,0,0,1,194.6873572168278,13.271549999999998)"><svg width="162.60108695652175" viewBox="1.9 -42.95 162.59108536872998 42.95" height="42.95" data-palette-color="#ffffff"><path d="M1.9 0L1.9-42.95 13.55-42.95Q18.25-42.95 20.38-40.65 22.5-38.35 22.5-33.15L22.5-33.15 22.5-31.25Q22.5-25.1 18.1-23.9L18.1-23.9Q20.8-23.2 21.9-20.65 23-18.1 23-13.9L23-13.9Q23-7.05 20.95-3.53 18.9 0 13.55 0L13.55 0 1.9 0ZM10.3-26.8L12.05-26.8Q13.15-26.8 13.55-27.63 13.95-28.45 13.95-29.95L13.95-29.95 13.95-34.25Q13.95-36.35 12.1-36.35L12.1-36.35 10.3-36.35 10.3-26.8ZM11.15-7.55Q14.5-7.55 14.5-10.75L14.5-10.75 14.5-16.1Q14.5-18.05 13.93-19.05 13.35-20.05 11.9-20.05L11.9-20.05 10.3-20.05 10.3-7.6 11.15-7.55ZM43.6 0L25.85 0 25.85-42.95 43.05-42.95 43.05-34.65 34.6-34.65 34.6-26.3 42.7-26.3 42.7-18.2 34.6-18.2 34.6-8.35 43.6-8.35 43.6 0ZM46.45 0L46.45-42.95 59.65-42.95Q62.8-42.95 64.52-41.53 66.25-40.1 66.84-37.52 67.45-34.95 67.45-30.95L67.45-30.95Q67.45-27.3 66.5-25.25 65.55-23.2 63.2-22.4L63.2-22.4Q65.15-22 66.02-20.45 66.9-18.9 66.9-16.25L66.9-16.25 66.8 0 58.4 0 58.4-16.8Q58.4-18.6 57.7-19.1 57-19.6 55.15-19.6L55.15-19.6 55.15 0 46.45 0ZM55.2-27.05L57.25-27.05Q59.05-27.05 59.05-30.95L59.05-30.95Q59.05-32.65 58.9-33.5 58.75-34.35 58.34-34.68 57.95-35 57.2-35L57.2-35 55.2-35 55.2-27.05ZM78.69 0L70.29 0 70.29-42.95 79.14-42.95 83.09-22.4 83.09-42.95 91.39-42.95 91.39 0 82.99 0 78.69-21.5 78.69 0ZM102.39 0L94.04 0 98.19-42.95 112.74-42.95 116.84 0 108.69 0 108.09-6.95 102.89-6.95 102.39 0ZM105.14-35.65L103.54-13.8 107.44-13.8 105.54-35.65 105.14-35.65ZM119.44 0L119.44-42.95 132.64-42.95Q135.79-42.95 137.51-41.53 139.24-40.1 139.84-37.52 140.44-34.95 140.44-30.95L140.44-30.95Q140.44-27.3 139.49-25.25 138.54-23.2 136.19-22.4L136.19-22.4Q138.14-22 139.01-20.45 139.89-18.9 139.89-16.25L139.89-16.25 139.79 0 131.39 0 131.39-16.8Q131.39-18.6 130.69-19.1 129.99-19.6 128.14-19.6L128.14-19.6 128.14 0 119.44 0ZM128.19-27.05L130.24-27.05Q132.04-27.05 132.04-30.95L132.04-30.95Q132.04-32.65 131.89-33.5 131.74-34.35 131.34-34.68 130.94-35 130.19-35L130.19-35 128.19-35 128.19-27.05ZM143.29 0L143.29-42.95 155.14-42.95Q159.74-42.95 162.04-40.4 164.34-37.85 164.39-32.85L164.39-32.85 164.49-12.75Q164.54-6.4 162.29-3.2 160.04 0 154.84 0L154.84 0 143.29 0ZM151.94-7.6L153.44-7.6Q155.79-7.6 155.79-9.9L155.79-9.9 155.79-32.05Q155.79-33.5 155.56-34.23 155.34-34.95 154.74-35.2 154.14-35.45 152.89-35.45L152.89-35.45 151.94-35.45 151.94-7.6Z" opacity="1" transform="matrix(1,0,0,1,0,0)" fill="#ffffff" class="undefined-yy-1"></path></svg></g></svg></g></svg></g></svg></g></svg></g><g></g></svg></g><defs></defs></svg><rect width="357.2884441733496" height="69.4931" fill="none" stroke="none" visibility="hidden"></rect></g></svg></g></svg>