<?xml version="1.0" standalone="no"?>
<!DOCTYPE svg PUBLIC "-//W3C//DTD SVG 20010904//EN"
 "http://www.w3.org/TR/2001/REC-SVG-20010904/DTD/svg10.dtd">
<svg version="1.0" xmlns="http://www.w3.org/2000/svg"
 width="128.000000pt" height="128.000000pt" viewBox="0 0 128.000000 128.000000"
 preserveAspectRatio="xMidYMid meet">
<metadata>
Created by potrace 1.14, written by Peter Selinger 2001-2017
</metadata>
<g transform="translate(0.000000,128.000000) scale(0.100000,-0.100000)"
fill="#000000" stroke="none">
<path d="M222 1103 c-26 -10 -67 -89 -75 -143 -16 -109 -19 -207 -6 -251 7
-24 11 -58 10 -76 -3 -33 18 -52 56 -54 25 -1 83 -122 83 -174 0 -22 -5 -75
-12 -117 -14 -95 -7 -108 62 -108 41 0 52 4 74 30 25 30 45 85 47 125 l0 20 8
-20 c5 -11 4 -47 -2 -81 -14 -85 -9 -94 56 -94 85 0 127 48 127 146 0 29 4 32
38 39 20 3 47 13 59 21 21 13 24 12 39 -10 12 -19 14 -37 9 -81 -5 -38 -4 -60
5 -70 14 -17 57 -20 93 -6 18 7 26 5 35 -10 16 -25 97 -26 131 -3 26 19 51 71
51 108 0 15 10 30 26 41 22 14 25 22 20 48 -4 18 -10 93 -15 167 -9 151 -28
205 -93 267 -52 50 -98 64 -227 70 -98 5 -121 9 -146 28 -16 12 -51 34 -77 48
-26 15 -56 40 -68 56 -11 16 -48 43 -82 60 -53 27 -71 31 -137 30 -42 0 -82
-3 -89 -6z m137 -34 c-6 -12 -19 -24 -30 -26 -10 -3 -21 -15 -25 -26 -4 -12
-13 -27 -20 -35 -22 -22 -16 -41 19 -62 19 -11 40 -32 48 -46 7 -15 35 -45 60
-68 26 -24 54 -59 63 -79 17 -41 41 -49 49 -16 8 29 37 21 57 -16 37 -67 70
-23 70 97 0 50 -4 61 -35 98 -19 23 -35 44 -35 46 0 12 81 -39 99 -62 37 -47
21 -136 -45 -245 -19 -31 -34 -65 -34 -75 0 -22 28 -54 48 -54 21 0 62 39 63
59 0 11 2 12 6 3 3 -7 -3 -35 -13 -63 -16 -44 -16 -51 -4 -59 23 -15 74 -12
96 5 27 20 34 19 34 -10 0 -20 -5 -25 -25 -25 -14 0 -43 -9 -65 -20 -22 -11
-51 -20 -66 -20 -24 0 -26 3 -21 33 3 17 8 40 12 50 5 12 2 17 -9 17 -19 0
-23 -19 -30 -132 -6 -107 -23 -145 -70 -153 -73 -14 -76 -8 -61 102 6 41 4 58
-9 77 -15 24 -15 26 10 53 46 49 77 133 50 133 -7 0 -16 -12 -19 -27 -7 -38
-62 -111 -92 -125 -22 -10 -30 -6 -77 37 -29 27 -65 69 -80 94 l-27 45 27 13
c14 8 36 12 48 9 47 -12 163 72 137 98 -11 11 -23 6 -23 -8 0 -7 -7 -19 -15
-26 -13 -11 -13 -8 -4 19 9 25 8 36 -5 56 -22 33 -53 36 -48 4 4 -24 -39 -51
-75 -47 -33 4 -50 33 -59 102 -6 40 -3 50 16 71 23 24 22 55 -2 55 -9 0 -13
17 -14 50 -1 27 -6 56 -13 63 -14 18 -5 44 17 50 10 3 43 5 75 6 56 1 57 0 46
-20z m-182 -116 c-3 -10 -5 -4 -5 12 0 17 2 24 5 18 2 -7 2 -21 0 -30z m168 7
c3 -5 -1 -10 -10 -10 -9 0 -13 5 -10 10 3 6 8 10 10 10 2 0 7 -4 10 -10z m132
-12 c-3 -8 -6 -5 -6 6 -1 11 2 17 5 13 3 -3 4 -12 1 -19z m-300 -42 c-3 -8 3
-26 14 -39 26 -34 26 -120 0 -153 -23 -29 -28 -21 -37 70 -6 57 7 136 23 136
3 0 3 -6 0 -14z m300 -28 c-3 -8 -6 -5 -6 6 -1 11 2 17 5 13 3 -3 4 -12 1 -19z
m-10 -50 c-3 -7 -5 -2 -5 12 0 14 2 19 5 13 2 -7 2 -19 0 -25z m299 -14 c7
-51 -5 -74 -26 -49 -7 9 -15 34 -17 55 -3 35 -1 40 16 40 16 0 21 -9 27 -46z
m-477 -161 c2 -1 -3 -13 -11 -26 -13 -19 -22 -22 -57 -19 -50 5 -56 13 -37 49
l15 28 1 -28 c0 -36 24 -31 28 6 3 26 4 26 30 10 15 -9 29 -18 31 -20z m89 -5
c-18 -27 -68 -37 -68 -15 0 9 7 13 18 11 9 -3 26 2 37 10 27 21 30 20 13 -6z
m521 -225 c17 -31 31 -68 31 -81 0 -25 0 -25 -21 -6 -40 35 -77 144 -50 144 5
0 23 -26 40 -57z m48 -5 c-3 -8 -6 -5 -6 6 -1 11 2 17 5 13 3 -3 4 -12 1 -19z
m-528 -55 c19 5 20 2 15 -36 -14 -93 -58 -138 -121 -123 -21 6 -24 11 -19 34
3 15 11 64 18 110 l12 82 37 -36 c27 -26 44 -35 58 -31z m714 27 c3 -10 -1
-24 -9 -31 -11 -9 -14 -6 -14 20 0 34 15 42 23 11z m-278 -30 c3 -10 19 -30
36 -44 33 -28 36 -42 13 -74 -11 -16 -25 -22 -55 -22 l-40 0 7 38 c10 46 10
60 1 95 -6 23 -4 27 12 27 11 0 22 -9 26 -20z"/>
</g>
</svg>
